# AST/ASF file generated using VICON BodyLanguage
# -----------------------------------------------
:version 1.10
:name VICON
:units
  mass 1.0
  length 0.45
  angle deg
:documentation
   .ast/.asf automatically generated from VICON data using
   VICON BodyBuilder and BodyLanguage model FoxedUp or BRILLIANT.MOD
:root
   order TX TY TZ RX RY RZ
   axis XYZ
   position 0 0 0  
   orientation 0 -0 0 
:bonedata
  begin
     id 1 
     name lhipjoint
     direction 0.515797 -0.759363 0.396637 
     length 2.47888 
     axis 0 -0 0  XYZ
  end
  begin
     id 2 
     name lfemur
     direction 0.34202 -0.939693 0  
     length 6.81885  
     axis 0 -0 20  XYZ
    dof rx ry rz
    limits (-160.0 20.0)
           (-70.0 70.0)
           (-60.0 70.0)
  end
  begin
     id 3 
     name ltibia
     direction 0.342037 -0.939687 0   
     length 7.89258   
     axis 0 -0 20   XYZ
    dof rx
    limits (-10.0 170.0)
  end
  begin
     id 4 
     name lfoot
     direction 0.173497 -0.476678 0.861787   
     length 2.51543   
     axis -90 -1.13533e-015 20   XYZ
    dof rx rz
    limits (-45.0 90.0)
           (-70.0 20.0)
  end
  begin
     id 5 
     name ltoes
     direction 1.53564e-011 -4.21897e-011 1   
     length 1.21388   
     axis -90 -1.13533e-015 20   XYZ
    dof rx
    limits (-90.0 20.0)
  end
  begin
     id 6 
     name rhipjoint
     direction -0.489454 -0.772941 0.403729   
     length 2.43534  
     axis 0 -0 0  XYZ 
  end
  begin
     id 7 
     name rfemur
     direction -0.34202 -0.939693 0   
     length 7.10357   
     axis 0 -0 -20   XYZ
    dof rx ry rz
    limits (-160.0 20.0)
           (-70.0 70.0)
           (-70.0 60.0)
  end
  begin
     id 8 
     name rtibia
     direction -0.34202 -0.939693 0   
     length 9.16127   
     axis 0 -0 -20   XYZ
    dof rx
    limits (-10.0 170.0)
 end
 begin
     id 9 
     name rfoot
     direction -0.270974 -0.748671 0.605033   
     length 1.74894  
     axis -90 1.13533e-015 -20   XYZ
    dof rx rz
    limits (-45.0 90.0)
           (-20.0 70.0)
  end
  begin
     id 10 
     name rtoes
     direction -1.53557e-011 -4.21759e-011 1   
     length 0.787585   
     axis -90 1.13533e-015 -20   XYZ
    dof rx
    limits (-90.0 20.0)
  end
  begin
     id 11 
     name lowerback
     direction -0.0140249 0.999561 0.0260968   
     length 2.16963   
     axis 0 -0 0   XYZ
    dof rx ry rz
    limits (-20.0 45.0)
           (-30.0 30.0)
           (-30.0 30.0)
  end
  begin
     id 12 
     name upperback
     direction 0.00860018 0.999959 -0.002711   
     length 2.1726   
     axis 0 -0 0   XYZ
    dof rx ry rz
    limits (-20.0 45.0)
           (-30.0 30.0)
           (-30.0 30.0)
  end
  begin
     id 13 
     name thorax
     direction 0.015211 0.999782 -0.0143191   
     length 2.17061   
     axis 0 -0 0   XYZ
    dof rx ry rz
    limits (-20.0 45.0)
           (-30.0 30.0)
           (-30.0 30.0)
  end
  begin
     id 14 
     name lowerneck
     direction -0.0140143 0.999447 0.030145   
     length 2.26749   
     axis 0 -0 0   XYZ
    dof rx ry rz
    limits (-20.0 45.0)
           (-30.0 30.0)
           (-30.0 30.0)
  end
  begin
     id 15 
     name upperneck
     direction 0.118062 0.961438 -0.248392   
     length 2.22728   
     axis 0 -0 0   XYZ
    dof rx ry rz
    limits (-20.0 45.0)
           (-30.0 30.0)
           (-30.0 30.0)
  end
  begin
     id 16
     name head
     direction 0.0431885 0.9954 -0.085514  
     length 2.28786  
     axis 0 -0 0   XYZ
    dof rx ry rz
    limits (-20.0 45.0)
           (-30.0 30.0)
           (-30.0 30.0)
  end
  begin
     id 17 
     name lclavicle
     direction 0.912126 0.409548 0.0172323  
     length 4.31571  
     axis 0 -0 0   XYZ
    dof ry rz
    limits (-20.0 10.0)
           (0.0 20.0)
  end
  begin
     id 18 
     name lhumerus
     direction 1 -4.48977e-011 1.93091e-027   
     length 5.13658   
     axis 180 -30 -90   XYZ
    dof rx ry rz
    limits (-60.0 90.0)
           (-90.0 90.0)
           (-90.0 90.0)
  end
  begin
     id 19
     name lradius
     direction 1 -4.48916e-011 6.84018e-027   
     length 3.22473   
     axis 180 -30 -90   XYZ
    dof rx
    limits (-10.0 170.0)
  end
  begin
     id 20
     name lwrist
     direction 1 -4.48987e-011 7.01981e-027   
     length 1.61236   
     axis -4.37994e-015 90 90   XYZ
    dof ry
    limits (-180.0 0.0)
 end
  begin
     id 21 
     name lhand
     direction 1 -4.49037e-011 1.40335e-026   
     length 0.936406   
     axis -8.96029e-015 90 90   XYZ
    dof rx rz
    limits (-90.0 90.0)
           (-45.0 45.0)
  end
  begin
     id 22 
     name lfingers
     direction 1 -4.48886e-011 2.8104e-026   
     length 0.754955   
     axis -1.79203e-014 90 90   XYZ
    dof rx
    limits (0.0 90.0)
  end
  begin
     id 23
     name lthumb
     direction 0.707107 -6.34937e-011 0.707107   
     length 1.08397   
     axis -90 45 -4.48555e-014   XYZ
    dof rx rz
    limits (-45.0 45.0)
           (-45.0 45.0)
  end
  begin
     id 24 
     name rclavicle
     direction -0.947962 0.317997 0.0156638   
     length 4.86918  
     axis 0 -0 0   XYZ 
    dof ry rz
    limits (-10.0 20.0)
           (-20.0 0.0)
  end
  begin
     id 25 
     name rhumerus
     direction -1 -4.48951e-011 2.80534e-018  
     length 5.60911   
     axis 180 30 90   XYZ
    dof rx ry rz
    limits (-90.0 60.0)
           (-90.0 90.0)
           (-90.0 90.0)
  end
  begin
     id 26 
     name rradius
     direction -1 -4.4898e-011 2.11315e-027   
     length 3.38704   
     axis 180 30 90   XYZ
    dof rx
    limits (-10.0 170.0)
  end
  begin
     id 27 
     name rwrist
     direction -1 -4.48933e-011 7.02314e-027   
     length 1.69352   
     axis -4.37994e-015 -90 -90   XYZ
    dof ry
    limits (-180.0 0.0)
  end
  begin
     id 28
     name rhand
     direction -1 -4.48937e-011 1.40458e-026   
     length 0.755878   
     axis -8.96029e-015 -90 -90   XYZ
    dof rx rz
    limits (-90.0 90.0)
           (-45.0 45.0)
  end
  begin
     id 29
     name rfingers
     direction -1 -4.4901e-011 2.80737e-026   
     length 0.609409   
     axis -1.79203e-014 -90 -90   XYZ
    dof rx
    limits (0.0 90.0)
  end
  begin
     id 30
     name rthumb
     direction -0.707107 -6.34968e-011 0.707107   
     length 0.874992   
     axis -90 -45 4.48555e-014   XYZ
    dof rx rz
    limits (-45.0 45.0)
           (-45.0 45.0)
  end
:hierarchy
  begin
    root lhipjoint rhipjoint lowerback
    lhipjoint lfemur
    lfemur ltibia
    ltibia lfoot
    lfoot ltoes
    rhipjoint rfemur
    rfemur rtibia
    rtibia rfoot
    rfoot rtoes
    lowerback upperback
    upperback thorax
    thorax lowerneck lclavicle rclavicle
    lowerneck upperneck
    upperneck head
    lclavicle lhumerus
    lhumerus lradius
    lradius lwrist
    lwrist lhand lthumb
    lhand lfingers
    rclavicle rhumerus
    rhumerus rradius
    rradius rwrist
    rwrist rhand rthumb
    rhand rfingers
  end

#!OML:ASF C:\ViconDB\ViconDB\414\Spring2016\041811\Spring2016.ASF
:FULLY-SPECIFIED
:DEGREES
123
root 6.81284 18.2128 -6.31496 -175.751 -6.5148 180.344
lowerback 5.26555 1.31975 -3.21003
upperback 2.50808 1.48879 0.297356
thorax -0.462069 0.667953 2.02226
lowerneck -13.7783 -0.531579 -7.7662
upperneck 21.7531 -2.51713 11.5124
head 9.32028 -0.921578 4.97015
rclavicle -8.05078e-015 1.88845e-015
rhumerus -44.6397 -7.18858 -84.7964
rradius 48.5901
rwrist 22.8996
rhand -34.0531 -15.8667
rfingers 7.12502
rthumb -7.23081 -45.7231
lclavicle -8.05078e-015 1.88845e-015
lhumerus -39.4346 -7.65865 83.1126
lradius 32.695
lwrist -21.2597
lhand -34.9001 17.026
lfingers 7.12502
lthumb -8.0484 46.8528
rfemur -7.23212 -12.3958 21.2649
rtibia 20.5844
rfoot -10.3385 -3.81833
rtoes -10.8762
lfemur -14.2272 -5.50907 -15.3689
ltibia 28.2147
lfoot -20.9787 5.3237
ltoes -10.2178
124
root 6.82137 18.2031 -6.28927 -175.548 -6.51097 180.345
lowerback 5.79177 1.31054 -3.22546
upperback 2.59263 1.4446 0.306934
thorax -0.665988 0.642087 2.03423
lowerneck -13.7521 -0.528601 -7.85388
upperneck 21.3441 -2.45167 11.6423
head 9.16939 -0.873812 5.02701
rclavicle 2.81777e-014 -3.57812e-015
rhumerus -44.7918 -6.88058 -84.6503
rradius 48.552
rwrist 22.8067
rhand -33.891 -15.6645
rfingers 7.12502
rthumb -7.07438 -45.5262
lclavicle 2.81777e-014 -3.57812e-015
lhumerus -39.6622 -7.81804 82.7975
lradius 32.6973
lwrist -21.0135
lhand -34.9158 17.1032
lfingers 7.12502
lthumb -8.06352 46.9293
rfemur -7.96201 -12.4044 21.3576
rtibia 21.281
rfoot -10.2816 -3.94646
rtoes -10.7902
lfemur -14.9424 -5.10121 -15.3263
ltibia 28.7422
lfoot -20.7664 5.07637
ltoes -10.8083
125
root 6.83235 18.1938 -6.26196 -175.368 -6.61947 180.433
lowerback 6.3805 1.274 -3.20882
upperback 2.65967 1.36363 0.349843
thorax -0.920111 0.598884 2.06466
lowerneck -13.7778 -0.564613 -7.87543
upperneck 21.0806 -2.45259 11.6691
head 9.08498 -0.863787 5.03266
rclavicle 1.94064e-014 -8.74653e-015
rhumerus -45.0516 -6.87564 -84.4415
rradius 48.6331
rwrist 22.976
rhand -33.7922 -15.7296
rfingers 7.12502
rthumb -6.97896 -45.5946
lclavicle 1.94064e-014 -8.74653e-015
lhumerus -39.7873 -7.7192 82.3603
lradius 32.5835
lwrist -21.0522
lhand -34.6468 17.2182
lfingers 7.12502
lthumb -7.8039 47.0541
rfemur -8.68503 -12.4374 21.5664
rtibia 22.0108
rfoot -10.1206 -4.04895
rtoes -10.7108
lfemur -15.676 -4.72854 -15.1645
ltibia 29.3096
lfoot -20.6705 4.74052
ltoes -11.0072
126
root 6.84114 18.1821 -6.23295 -175.176 -6.70113 180.475
lowerback 7.03078 1.27896 -3.05716
upperback 2.72425 1.34094 0.277616
thorax -1.20832 0.585402 1.89626
lowerneck -13.8883 -0.614794 -7.64623
upperneck 20.8763 -2.50313 11.5566
head 9.03943 -0.869064 4.94191
rclavicle -1.9953e-014 8.05078e-015
rhumerus -45.3045 -6.63686 -84.4409
rradius 48.6706
rwrist 22.4982
rhand -33.9319 -15.6846
rfingers 7.12502
rthumb -7.11384 -45.545
lclavicle -1.9953e-014 8.05078e-015
lhumerus -39.9895 -8.00026 81.9828
lradius 32.5271
lwrist -20.6968
lhand -34.6 17.2879
lfingers 7.12502
lthumb -7.75872 47.1256
rfemur -9.43965 -12.4832 21.7024
rtibia 22.7634
rfoot -10.0145 -4.20886
rtoes -10.5622
lfemur -16.422 -4.31661 -15.0705
ltibia 29.9187
lfoot -20.6444 4.32561
ltoes -11.1058
127
root 6.85504 18.167 -6.20067 -174.944 -6.82429 180.503
lowerback 7.70021 1.2787 -3.08567
upperback 2.83249 1.29802 0.315391
thorax -1.46684 0.557802 1.94495
lowerneck -14.0794 -0.720148 -7.73299
upperneck 20.5592 -2.5733 11.6434
head 8.97779 -0.88194 4.97295
rclavicle 3.25758e-014 3.18055e-015
rhumerus -45.4572 -6.48927 -84.2661
rradius 48.7489
rwrist 22.3005
rhand -33.667 -15.6158
rfingers 7.12502
rthumb -6.8581 -45.4847
lclavicle 3.25758e-014 3.18055e-015
lhumerus -39.9927 -7.9137 81.6092
lradius 32.4528
lwrist -20.3739
lhand -34.368 17.0771
lfingers 7.12502
lthumb -7.53475 46.9229
rfemur -10.2784 -12.3771 21.8761
rtibia 23.5718
rfoot -9.71513 -4.23397
rtoes -10.4301
lfemur -17.2626 -3.72711 -14.9703
ltibia 30.5679
lfoot -20.5502 3.69416
ltoes -11.1624
128
root 6.86851 18.1493 -6.16887 -174.683 -6.94095 180.602
lowerback 8.31409 1.22649 -3.00246
upperback 2.8713 1.20075 0.327695
thorax -1.75962 0.507276 1.91116
lowerneck -13.9934 -0.728225 -7.89021
upperneck 20.1993 -2.57006 11.9333
head 8.84386 -0.862205 5.09167
rclavicle 2.46493e-014 6.55989e-015
rhumerus -45.8066 -6.43527 -84.1203
rradius 48.8705
rwrist 22.5155
rhand -33.7273 -15.7674
rfingers 7.12502
rthumb -6.91635 -45.6344
lclavicle 2.46493e-014 6.55989e-015
lhumerus -40.1916 -7.68703 81.1401
lradius 32.3634
lwrist -20.4206
lhand -34.2301 16.9858
lfingers 7.12502
lthumb -7.40171 46.8364
rfemur -11.2007 -12.2802 22.1233
rtibia 24.4607
rfoot -9.46241 -4.3087
rtoes -10.2871
lfemur -18.1768 -3.1728 -14.7898
ltibia 31.2865
lfoot -20.5019 3.03045
ltoes -11.0407
129
root 6.88066 18.1289 -6.13527 -174.442 -7.00599 180.61
lowerback 9.01553 1.22707 -3.06874
upperback 2.95999 1.15364 0.366792
thorax -2.05495 0.477962 1.98488
lowerneck -14.1625 -0.768436 -7.95874
upperneck 19.9514 -2.5665 12.013
head 8.79345 -0.84351 5.12706
rclavicle 1.05356e-014 1.00386e-014
rhumerus -46.0757 -5.97937 -84.1378
rradius 49.1144
rwrist 21.6219
rhand -33.69 -15.9023
rfingers 7.12502
rthumb -6.88032 -45.7705
lclavicle 1.05356e-014 1.00386e-014
lhumerus -40.3584 -7.69579 80.8506
lradius 32.3228
lwrist -20.2018
lhand -34.0878 16.8048
lfingers 7.12502
lthumb -7.26433 46.6601
rfemur -12.1579 -12.2226 22.259
rtibia 25.4466
rfoot -9.26192 -4.48093
rtoes -10.1419
lfemur -19.0768 -2.70376 -14.7265
ltibia 32.0564
lfoot -20.5148 2.50132
ltoes -11.0433
130
root 6.89171 18.105 -6.09883 -174.155 -7.08818 180.71
lowerback 9.7256 1.23065 -2.94345
upperback 3.01256 1.12873 0.380066
thorax -2.38873 0.461828 1.92226
lowerneck -14.2527 -0.841122 -7.94875
upperneck 19.6453 -2.61661 12.0461
head 8.71378 -0.851696 5.12327
rclavicle 2.1419e-014 -8.44835e-015
rhumerus -46.4026 -5.92438 -84.0315
rradius 49.35
rwrist 21.3932
rhand -33.7457 -16.0461
rfingers 7.12502
rthumb -6.93414 -45.9126
lclavicle 2.1419e-014 -8.44835e-015
lhumerus -40.5712 -7.8254 80.6081
lradius 32.3699
lwrist -19.7969
lhand -33.9613 16.9936
lfingers 7.12502
lthumb -7.14217 46.8531
rfemur -13.227 -12.1476 22.5061
rtibia 26.5019
rfoot -9.01938 -4.65529
rtoes -9.89152
lfemur -20.1036 -2.01617 -14.575
ltibia 32.9011
lfoot -20.4914 1.74535
ltoes -10.9884
131
root 6.90299 18.0787 -6.06316 -173.815 -7.20553 180.751
lowerback 10.425 1.22583 -2.8696
upperback 3.05376 1.0892 0.368368
thorax -2.72741 0.438596 1.86529
lowerneck -14.3962 -0.933111 -7.90468
upperneck 19.3139 -2.69507 12.0833
head 8.639 -0.868377 5.11162
rclavicle -1.68967e-015 -6.75868e-015
rhumerus -46.7605 -5.80788 -84.0043
rradius 49.6217
rwrist 20.9064
rhand -33.4959 -15.9501
rfingers 7.12502
rthumb -6.69297 -45.8243
lclavicle -1.68967e-015 -6.75868e-015
lhumerus -40.7487 -7.9454 80.343
lradius 32.305
lwrist -19.4904
lhand -33.9513 16.6781
lfingers 7.12502
lthumb -7.13255 46.5379
rfemur -14.4046 -12.2244 22.705
rtibia 27.6509
rfoot -8.83598 -4.92767
rtoes -9.74026
lfemur -21.203 -1.46413 -14.4933
ltibia 33.7896
lfoot -20.5324 1.07103
ltoes -10.96
132
root 6.9166 18.0492 -6.02266 -173.474 -7.29858 180.806
lowerback 11.149 1.23474 -2.82372
upperback 3.13895 1.06107 0.382155
thorax -3.03477 0.417637 1.85003
lowerneck -14.5475 -1.03541 -7.98975
upperneck 18.9595 -2.76878 12.1945
head 8.55986 -0.884809 5.14859
rclavicle 5.56597e-015 3.47873e-015
rhumerus -47.0663 -5.75512 -83.981
rradius 49.9952
rwrist 20.3697
rhand -33.542 -16.13
rfingers 7.12502
rthumb -6.73744 -46.0028
lclavicle 5.56597e-015 3.47873e-015
lhumerus -40.7911 -7.69879 79.8694
lradius 32.1595
lwrist -20.4769
lhand -33.7349 16.7115
lfingers 7.12502
lthumb -6.92369 46.5783
rfemur -15.6171 -12.1296 22.9227
rtibia 28.8359
rfoot -8.54654 -5.15595
rtoes -9.49618
lfemur -22.3433 -0.9386 -14.3963
ltibia 34.7411
lfoot -20.5899 0.409242
ltoes -10.8362
133
root 6.92595 18.0173 -5.98327 -173.111 -7.39119 180.744
lowerback 11.9109 1.22787 -2.84047
upperback 3.19734 1.00313 0.363195
thorax -3.38879 0.383312 1.8406
lowerneck -14.5934 -1.09538 -8.0427
upperneck 18.4852 -2.7671 12.2481
head 8.41172 -0.871317 5.16384
rclavicle -1.81888e-014 4.87022e-015
rhumerus -47.4038 -5.65838 -83.9239
rradius 50.2814
rwrist 20.0998
rhand -33.7739 -16.2391
rfingers 7.12502
rthumb -6.96133 -46.1047
lclavicle -1.81888e-014 4.87022e-015
lhumerus -40.9454 -7.68719 79.6561
lradius 32.1087
lwrist -20.0665
lhand -33.9355 16.3407
lfingers 7.12502
lthumb -7.11734 46.2011
rfemur -16.8709 -12.2539 22.9909
rtibia 30.0614
rfoot -8.39789 -5.51969
rtoes -9.36179
lfemur -23.5309 -0.341825 -14.4562
ltibia 35.7392
lfoot -20.6182 -0.355305
ltoes -10.7347
134
root 6.9393 17.9816 -5.94327 -172.714 -7.56457 180.821
lowerback 12.7278 1.20938 -2.73625
upperback 3.17044 0.952886 0.411674
thorax -3.86064 0.357886 1.83253
lowerneck -14.4831 -1.21409 -8.32553
upperneck 17.9392 -2.86012 12.5549
head 8.22885 -0.904355 5.29322
rclavicle -3.8763e-015 -4.87022e-015
rhumerus -47.8597 -5.52793 -83.8762
rradius 50.6819
rwrist 19.5142
rhand -33.7893 -16.4215
rfingers 7.12502
rthumb -6.97618 -46.2866
lclavicle -3.8763e-015 -4.87022e-015
lhumerus -41.1906 -7.67882 79.4787
lradius 32.1137
lwrist -20.1031
lhand -33.7922 16.2694
lfingers 7.12502
lthumb -6.97895 46.1343
rfemur -18.1835 -12.3011 23.243
rtibia 31.2945
rfoot -8.18251 -5.81308
rtoes -9.08623
lfemur -24.794 -0.0061603 -14.3352
ltibia 36.7645
lfoot -20.7224 -0.914356
ltoes -10.7532
135
root 6.94843 17.9421 -5.90077 -172.287 -7.66187 180.96
lowerback 13.4069 1.16584 -2.54282
upperback 3.26825 0.876516 0.423668
thorax -4.12257 0.309787 1.74373
lowerneck -14.7456 -1.31717 -8.271
upperneck 17.5125 -2.91511 12.5289
head 8.14266 -0.910266 5.25917
rclavicle 2.32578e-014 -2.38542e-015
rhumerus -48.1041 -5.39561 -84.0169
rradius 51.0803
rwrist 18.9551
rhand -33.8323 -16.2973
rfingers 7.12502
rthumb -7.01766 -46.161
lclavicle 2.32578e-014 -2.38542e-015
lhumerus -41.2991 -7.61852 79.2424
lradius 32.2898
lwrist -19.7707
lhand -33.7804 16.5413
lfingers 7.12502
lthumb -6.96755 46.4066
rfemur -19.5674 -12.4113 23.5623
rtibia 32.542
rfoot -8.05781 -6.19199
rtoes -8.7819
lfemur -26.1266 0.549614 -14.1981
ltibia 37.8132
lfoot -20.7967 -1.49489
ltoes -10.7325
